<svg width="24" height="22" viewBox="0 0 24 22" fill="none" xmlns="http://www.w3.org/2000/svg">
<path d="M4.36975 10.9677C6.31933 11.6774 7.86555 11.9355 9.88235 12.1935C8.60504 13.2903 7.46219 14.3871 6.05042 16.3226L3.42857 19.9355L6.58823 22L9.27731 18.4516C10.6218 16.7097 11.3613 15.2258 11.8992 13.6774C12.5042 15.0323 13.2437 16.5161 14.6555 18.4516L17.2773 22L20.3697 19.9355L17.7479 16.3226C16.4706 14.3871 15.4622 13.3548 14.0504 12.1935C15.5966 12 17.3445 11.7419 19.563 10.9677L24 9.48387L22.5882 6.06452L18.3529 7.48387C16 8.25807 14.6555 9.03226 13.2437 9.87097C13.5798 8.3871 13.8487 6.70968 13.8487 4.45161V0H10.084V4.45161C10.084 6.70968 10.2857 8.25807 10.6891 9.87097C9.27731 8.96774 7.93277 8.25807 5.51261 7.48387L1.34454 6.12903L0 9.48387L4.36975 10.9677Z" fill="#CEF870"/>
</svg>
